<?xml version="1.0" standalone="no"?><svg xmlns="http://www.w3.org/2000/svg" viewBox="0 0 1440 320" ><path fill="" fill-opacity="1" d="M0,96L14.1,90.7C28.2,85,56,75,85,96C112.9,117,141,171,169,170.7C197.6,171,226,117,254,106.7C282.4,96,311,128,339,170.7C367.1,213,395,267,424,277.3C451.8,288,480,256,508,240C536.5,224,565,224,593,224C621.2,224,649,224,678,213.3C705.9,203,734,181,762,160C790.6,139,819,117,847,101.3C875.3,85,904,75,932,74.7C960,75,988,85,1016,90.7C1044.7,96,1073,96,1101,101.3C1129.4,107,1158,117,1186,128C1214.1,139,1242,149,1271,160C1298.8,171,1327,181,1355,160C1383.5,139,1412,85,1426,58.7L1440,32L1440,320L1425.9,320C1411.8,320,1384,320,1355,320C1327.1,320,1299,320,1271,320C1242.4,320,1214,320,1186,320C1157.6,320,1129,320,1101,320C1072.9,320,1045,320,1016,320C988.2,320,960,320,932,320C903.5,320,875,320,847,320C818.8,320,791,320,762,320C734.1,320,706,320,678,320C649.4,320,621,320,593,320C564.7,320,536,320,508,320C480,320,452,320,424,320C395.3,320,367,320,339,320C310.6,320,282,320,254,320C225.9,320,198,320,169,320C141.2,320,113,320,85,320C56.5,320,28,320,14,320L0,320Z" style="transition-property: -all !important; fill: rgb(10, 13, 20) !important;"></path></svg>