<?xml version="1.0" standalone="no"?>
<svg xmlns:xlink="http://www.w3.org/1999/xlink" id="wave" style="transform: rotate(180deg); transition-property: -all !important; transition-duration: 0.3s; transition-timing-function: ease; transition-delay: 0s; fill: rgb(0, 0, 0) !important;" viewBox="0 0 1440 270" version="1.1" xmlns="http://www.w3.org/2000/svg"><defs><linearGradient id="sw-gradient-0" x1="0" x2="0" y1="1" y2="0"><stop stop-color="rgba(18.425, 23.972, 32.292, 1)" offset="0%"/><stop stop-color="rgba(14.731, 19.934, 27.739, 0)" offset="100%"/></linearGradient></defs><path style="transform:translate(0, 0px); opacity:1" fill="url(#sw-gradient-0)" d="M0,162L18.5,144C36.9,126,74,90,111,72C147.7,54,185,54,222,49.5C258.5,45,295,36,332,36C369.2,36,406,45,443,76.5C480,108,517,162,554,175.5C590.8,189,628,162,665,157.5C701.5,153,738,171,775,148.5C812.3,126,849,63,886,58.5C923.1,54,960,108,997,144C1033.8,180,1071,198,1108,202.5C1144.6,207,1182,198,1218,180C1255.4,162,1292,135,1329,103.5C1366.2,72,1403,36,1440,18C1476.9,0,1514,0,1551,31.5C1587.7,63,1625,126,1662,130.5C1698.5,135,1735,81,1772,49.5C1809.2,18,1846,9,1883,45C1920,81,1957,162,1994,171C2030.8,180,2068,117,2105,94.5C2141.5,72,2178,90,2215,81C2252.3,72,2289,36,2326,49.5C2363.1,63,2400,126,2437,157.5C2473.8,189,2511,189,2548,193.5C2584.6,198,2622,207,2640,211.5L2658.5,216L2658.5,270L2640,270C2621.5,270,2585,270,2548,270C2510.8,270,2474,270,2437,270C2400,270,2363,270,2326,270C2289.2,270,2252,270,2215,270C2178.5,270,2142,270,2105,270C2067.7,270,2031,270,1994,270C1956.9,270,1920,270,1883,270C1846.2,270,1809,270,1772,270C1735.4,270,1698,270,1662,270C1624.6,270,1588,270,1551,270C1513.8,270,1477,270,1440,270C1403.1,270,1366,270,1329,270C1292.3,270,1255,270,1218,270C1181.5,270,1145,270,1108,270C1070.8,270,1034,270,997,270C960,270,923,270,886,270C849.2,270,812,270,775,270C738.5,270,702,270,665,270C627.7,270,591,270,554,270C516.9,270,480,270,443,270C406.2,270,369,270,332,270C295.4,270,258,270,222,270C184.6,270,148,270,111,270C73.8,270,37,270,18,270L0,270Z"/><defs><linearGradient id="sw-gradient-1" x1="0" x2="0" y1="1" y2="0"><stop stop-color="rgba(18.061, 23.753, 32.292, 1)" offset="0%"/><stop stop-color="rgba(23.625, 32.556, 45.953, 0.02)" offset="100%"/></linearGradient></defs><path style="transform:translate(0, 50px); opacity:0.9" fill="url(#sw-gradient-1)" d="M0,27L18.5,22.5C36.9,18,74,9,111,9C147.7,9,185,18,222,40.5C258.5,63,295,99,332,112.5C369.2,126,406,117,443,135C480,153,517,198,554,216C590.8,234,628,225,665,189C701.5,153,738,90,775,76.5C812.3,63,849,99,886,112.5C923.1,126,960,117,997,103.5C1033.8,90,1071,72,1108,81C1144.6,90,1182,126,1218,130.5C1255.4,135,1292,108,1329,103.5C1366.2,99,1403,117,1440,135C1476.9,153,1514,171,1551,153C1587.7,135,1625,81,1662,54C1698.5,27,1735,27,1772,63C1809.2,99,1846,171,1883,207C1920,243,1957,243,1994,225C2030.8,207,2068,171,2105,171C2141.5,171,2178,207,2215,216C2252.3,225,2289,207,2326,198C2363.1,189,2400,189,2437,166.5C2473.8,144,2511,99,2548,103.5C2584.6,108,2622,162,2640,189L2658.5,216L2658.5,270L2640,270C2621.5,270,2585,270,2548,270C2510.8,270,2474,270,2437,270C2400,270,2363,270,2326,270C2289.2,270,2252,270,2215,270C2178.5,270,2142,270,2105,270C2067.7,270,2031,270,1994,270C1956.9,270,1920,270,1883,270C1846.2,270,1809,270,1772,270C1735.4,270,1698,270,1662,270C1624.6,270,1588,270,1551,270C1513.8,270,1477,270,1440,270C1403.1,270,1366,270,1329,270C1292.3,270,1255,270,1218,270C1181.5,270,1145,270,1108,270C1070.8,270,1034,270,997,270C960,270,923,270,886,270C849.2,270,812,270,775,270C738.5,270,702,270,665,270C627.7,270,591,270,554,270C516.9,270,480,270,443,270C406.2,270,369,270,332,270C295.4,270,258,270,222,270C184.6,270,148,270,111,270C73.8,270,37,270,18,270L0,270Z"/><defs><linearGradient id="sw-gradient-2" x1="0" x2="0" y1="1" y2="0"><stop stop-color="rgba(12, 17, 25, 1)" offset="0%"/><stop stop-color="rgba(12, 17, 25, 0)" offset="100%"/></linearGradient></defs><path style="transform:translate(0, 100px); opacity:0.8" fill="url(#sw-gradient-2)" d="M0,135L18.5,126C36.9,117,74,99,111,85.5C147.7,72,185,63,222,85.5C258.5,108,295,162,332,166.5C369.2,171,406,126,443,108C480,90,517,99,554,117C590.8,135,628,162,665,166.5C701.5,171,738,153,775,157.5C812.3,162,849,189,886,180C923.1,171,960,126,997,112.5C1033.8,99,1071,117,1108,108C1144.6,99,1182,63,1218,40.5C1255.4,18,1292,9,1329,36C1366.2,63,1403,126,1440,166.5C1476.9,207,1514,225,1551,211.5C1587.7,198,1625,153,1662,135C1698.5,117,1735,126,1772,130.5C1809.2,135,1846,135,1883,135C1920,135,1957,135,1994,117C2030.8,99,2068,63,2105,81C2141.5,99,2178,171,2215,166.5C2252.3,162,2289,81,2326,72C2363.1,63,2400,126,2437,162C2473.8,198,2511,207,2548,211.5C2584.6,216,2622,216,2640,216L2658.5,216L2658.5,270L2640,270C2621.5,270,2585,270,2548,270C2510.8,270,2474,270,2437,270C2400,270,2363,270,2326,270C2289.2,270,2252,270,2215,270C2178.5,270,2142,270,2105,270C2067.7,270,2031,270,1994,270C1956.9,270,1920,270,1883,270C1846.2,270,1809,270,1772,270C1735.4,270,1698,270,1662,270C1624.6,270,1588,270,1551,270C1513.8,270,1477,270,1440,270C1403.1,270,1366,270,1329,270C1292.3,270,1255,270,1218,270C1181.5,270,1145,270,1108,270C1070.8,270,1034,270,997,270C960,270,923,270,886,270C849.2,270,812,270,775,270C738.5,270,702,270,665,270C627.7,270,591,270,554,270C516.9,270,480,270,443,270C406.2,270,369,270,332,270C295.4,270,258,270,222,270C184.6,270,148,270,111,270C73.8,270,37,270,18,270L0,270Z"/></svg>