<?xml version="1.0" standalone="no"?><svg xmlns="http://www.w3.org/2000/svg" viewBox="0 0 1440 320" style="fill: rgb(0, 0, 0) !important;"><path fill="" fill-opacity="0.6" d="M0,160L18.5,144C36.9,128,74,96,111,101.3C147.7,107,185,149,222,149.3C258.5,149,295,107,332,128C369.2,149,406,235,443,272C480,309,517,299,554,256C590.8,213,628,139,665,101.3C701.5,64,738,64,775,96C812.3,128,849,192,886,186.7C923.1,181,960,107,997,69.3C1033.8,32,1071,32,1108,58.7C1144.6,85,1182,139,1218,149.3C1255.4,160,1292,128,1329,128C1366.2,128,1403,160,1422,176L1440,192L1440,320L1421.5,320C1403.1,320,1366,320,1329,320C1292.3,320,1255,320,1218,320C1181.5,320,1145,320,1108,320C1070.8,320,1034,320,997,320C960,320,923,320,886,320C849.2,320,812,320,775,320C738.5,320,702,320,665,320C627.7,320,591,320,554,320C516.9,320,480,320,443,320C406.2,320,369,320,332,320C295.4,320,258,320,222,320C184.6,320,148,320,111,320C73.8,320,37,320,18,320L0,320Z" style="transition-property: -all !important; fill: rgb(10, 13, 20) !important;"></path></svg>